<?xml version="1.0" encoding="utf-8"?>
<svg version="1.1" id="layer_1" xmlns="http://www.w3.org/2000/svg" xmlns:xlink="http://www.w3.org/1999/xlink" x="0px" y="0px" viewBox="0 0 306.8 60.8" enable-background="new 0 0 306.8 60.8" xml:space="preserve">

<symbol id="burger-icon" width="100%" height="100%" viewBox="0 0 24 24" xmlns="http://www.w3.org/2000/svg">
    <path d="M21 17a1 1 0 110 2H3a1 1 0 110-2h18zm0-6a1 1 0 110 2H3a1 1 0 110-2h18zm0-6a1 1 0 110 2H3a1 1 0 010-2h18z"></path>
</symbol>

<symbol id="close-icon" width="100%" height="100%" viewBox="0 0 384 512" fill="none" xmlns="http://www.w3.org/2000/svg">
    <path d="M342.6 150.6c12.5-12.5 12.5-32.8 0-45.3s-32.8-12.5-45.3 0L192 210.7 86.6 105.4c-12.5-12.5-32.8-12.5-45.3 0s-12.5 32.8 0 45.3L146.7 256 41.4 361.4c-12.5 12.5-12.5 32.8 0 45.3s32.8 12.5 45.3 0L192 301.3 297.4 406.6c12.5 12.5 32.8 12.5 45.3 0s12.5-32.8 0-45.3L237.3 256 342.6 150.6z" fill="#ced5f4"/>
</symbol>

<symbol id="vk-icon" width="100%" height="100%" viewBox="0 0 448 512" xmlns="http://www.w3.org/2000/svg">
    <path d="M31.4907 63.4907C0 94.9813 0 145.671 0 247.04V264.96C0 366.329 0 417.019 31.4907 448.509C62.9813 480 113.671 480 215.04 480H232.96C334.329 480 385.019 480 416.509 448.509C448 417.019 448 366.329 448 264.96V247.04C448 145.671 448 94.9813 416.509 63.4907C385.019 32 334.329 32 232.96 32H215.04C113.671 32 62.9813 32 31.4907 63.4907ZM75.6 168.267H126.747C128.427 253.76 166.133 289.973 196 297.44V168.267H244.16V242C273.653 238.827 304.64 205.227 315.093 168.267H363.253C359.313 187.435 351.46 205.583 340.186 221.579C328.913 237.574 314.461 251.071 297.733 261.227C316.41 270.499 332.907 283.63 346.132 299.751C359.357 315.873 369.01 334.618 374.453 354.747H321.44C316.555 337.262 306.614 321.61 292.865 309.754C279.117 297.899 262.173 290.368 244.16 288.107V354.747H238.373C136.267 354.747 78.0267 284.747 75.6 168.267Z"/>
</symbol>

<symbol id="instagram-icon" width="100%" height="100%" viewBox="0 0 448 512" xmlns="http://www.w3.org/2000/svg">
    <path d="M224.1 141c-63.6 0-114.9 51.3-114.9 114.9s51.3 114.9 114.9 114.9S339 319.5 339 255.9 287.7 141 224.1 141zm0 189.6c-41.1 0-74.7-33.5-74.7-74.7s33.5-74.7 74.7-74.7 74.7 33.5 74.7 74.7-33.6 74.7-74.7 74.7zm146.4-194.3c0 14.9-12 26.8-26.8 26.8-14.9 0-26.8-12-26.8-26.8s12-26.8 26.8-26.8 26.8 12 26.8 26.8zm76.1 27.2c-1.7-35.9-9.9-67.7-36.2-93.9-26.2-26.2-58-34.4-93.9-36.2-37-2.1-147.9-2.1-184.9 0-35.8 1.7-67.6 9.9-93.9 36.1s-34.4 58-36.2 93.9c-2.1 37-2.1 147.9 0 184.9 1.7 35.9 9.9 67.7 36.2 93.9s58 34.4 93.9 36.2c37 2.1 147.9 2.1 184.9 0 35.9-1.7 67.7-9.9 93.9-36.2 26.2-26.2 34.4-58 36.2-93.9 2.1-37 2.1-147.8 0-184.8zM398.8 388c-7.8 19.6-22.9 34.7-42.6 42.6-29.5 11.7-99.5 9-132.1 9s-102.7 2.6-132.1-9c-19.6-7.8-34.7-22.9-42.6-42.6-11.7-29.5-9-99.5-9-132.1s-2.6-102.7 9-132.1c7.8-19.6 22.9-34.7 42.6-42.6 29.5-11.7 99.5-9 132.1-9s102.7-2.6 132.1 9c19.6 7.8 34.7 22.9 42.6 42.6 11.7 29.5 9 99.5 9 132.1s2.7 102.7-9 132.1z"/>
</symbol>

<symbol id="telegram-icon" width="100%" height="100%" viewBox="0 0 496 512" xmlns="http://www.w3.org/2000/svg">
    <path d="M248,8C111.033,8,0,119.033,0,256S111.033,504,248,504,496,392.967,496,256,384.967,8,248,8ZM362.952,176.66c-3.732,39.215-19.881,134.378-28.1,178.3-3.476,18.584-10.322,24.816-16.948,25.425-14.4,1.326-25.338-9.517-39.287-18.661-21.827-14.308-34.158-23.215-55.346-37.177-24.485-16.135-8.612-25,5.342-39.5,3.652-3.793,67.107-61.51,68.335-66.746.153-.655.3-3.1-1.154-4.384s-3.59-.849-5.135-.5q-3.283.746-104.608,69.142-14.845,10.194-26.894,9.934c-8.855-.191-25.888-5.006-38.551-9.123-15.531-5.048-27.875-7.717-26.8-16.291q.84-6.7,18.45-13.7,108.446-47.248,144.628-62.3c68.872-28.647,83.183-33.623,92.511-33.789,2.052-.034,6.639.474,9.61,2.885a10.452,10.452,0,0,1,3.53,6.716A43.765,43.765,0,0,1,362.952,176.66Z"/>
</symbol>

<symbol id="crimea-food" width="100%" height="100%" viewBox="0 0 42 38" xmlns="http://www.w3.org/2000/svg">
    <path fill-rule="evenodd" clip-rule="evenodd" d="M20.6094 11.5054C19.389 11.5054 18.4004 10.5163 18.4004 9.2964V2.20899C18.4004 0.989106 19.389 0 20.6094 0C21.8298 0 22.8184 0.989106 22.8184 2.20899V9.2964C22.8184 10.5163 21.8298 11.5054 20.6094 11.5054ZM38.9314 13.5782C40.1446 13.5782 41.1271 14.5613 41.1271 15.7745C41.1271 19.3692 40.1998 22.7515 38.5719 25.6948C40.1998 28.6381 41.1271 32.0204 41.1271 35.6152C41.1271 36.8284 40.1446 37.8108 38.9314 37.8108C37.7182 37.8108 36.7352 36.8284 36.7352 35.6152C36.7352 33.5476 36.3451 31.5693 35.6347 29.7501C31.8766 33.7998 26.5107 36.3377 20.5632 36.3377C14.6159 36.3377 9.25001 33.7997 5.49195 29.7498C4.78146 31.569 4.39135 33.5474 4.39135 35.6152C4.39135 36.8284 3.40835 37.8108 2.19568 37.8108C0.983011 37.8108 0 36.8284 0 35.6152C0 32.0204 0.927233 28.6381 2.55508 25.6948C0.927233 22.7515 0 19.3692 0 15.7745C0 14.5613 0.983011 13.5782 2.19568 13.5782C3.40835 13.5782 4.39135 14.5613 4.39135 15.7745C4.39135 17.8422 4.78144 19.8205 5.49188 21.6397C9.24994 17.5896 14.6158 15.0513 20.5632 15.0513C26.5108 15.0513 31.8766 17.5895 35.6348 21.6393C36.3451 19.8202 36.7352 17.842 36.7352 15.7745C36.7352 14.5613 37.7182 13.5782 38.9314 13.5782ZM33.3267 25.6948C30.3649 21.8929 25.7447 19.4433 20.5632 19.4433C15.3818 19.4433 10.7615 21.8929 7.79981 25.6948C10.7615 29.4967 15.3818 31.9464 20.5632 31.9464C25.7447 31.9464 30.3649 29.4967 33.3267 25.6948ZM29.6955 13.4981C30.0034 13.6451 30.3274 13.715 30.6469 13.715C31.4712 13.715 32.2623 13.2513 32.6418 12.4574L35.6984 6.06346C36.2243 4.9634 35.7589 3.64366 34.6583 3.11721C33.5565 2.5902 32.2384 3.05785 31.712 4.15735L28.6548 10.5525C28.1295 11.6531 28.5943 12.9722 29.6955 13.4981ZM10.5719 13.7152C9.74814 13.7152 8.95707 13.2514 8.57707 12.4576L5.52099 6.06302C4.99509 4.96296 5.46052 3.64378 6.56169 3.11733C7.66341 2.58977 8.98038 3.05687 9.50794 4.15748L12.564 10.5526C13.0899 11.6532 12.6245 12.9724 11.5233 13.4983C11.2154 13.6453 10.8915 13.7152 10.5719 13.7152ZM20.5531 21.0718C17.9996 21.0718 15.9293 23.1421 15.9293 25.6962C15.9293 28.2497 17.9996 30.32 20.5531 30.32C23.1066 30.32 25.1769 28.2497 25.1769 25.6962C25.1769 23.1421 23.1066 21.0718 20.5531 21.0718Z"/>
</symbol>

<symbol id="basket-shopp" width="100%" height="100%" viewBox="0 0 576 512" xmlns="http://www.w3.org/2000/svg">
   <path d="M253.3 35.1c6.1-11.8 1.5-26.3-10.2-32.4s-26.3-1.5-32.4 10.2L117.6 192H32c-17.7 0-32 14.3-32 32s14.3 32 32 32L83.9 463.5C91 492 116.6 512 146 512H430c29.4 0 55-20 62.1-48.5L544 256c17.7 0 32-14.3 32-32s-14.3-32-32-32H458.4L365.3 12.9C359.2 1.2 344.7-3.4 332.9 2.7s-16.3 20.6-10.2 32.4L404.3 192H171.7L253.3 35.1zM192 304v96c0 8.8-7.2 16-16 16s-16-7.2-16-16V304c0-8.8 7.2-16 16-16s16 7.2 16 16zm96-16c8.8 0 16 7.2 16 16v96c0 8.8-7.2 16-16 16s-16-7.2-16-16V304c0-8.8 7.2-16 16-16zm128 16v96c0 8.8-7.2 16-16 16s-16-7.2-16-16V304c0-8.8 7.2-16 16-16s16 7.2 16 16z"/>
</symbol>

<symbol id="angles-right" width="100%" height="100%" viewBox="0 0 512 512" xmlns="http://www.w3.org/2000/svg">
   <path d="M470.6 278.6c12.5-12.5 12.5-32.8 0-45.3l-160-160c-12.5-12.5-32.8-12.5-45.3 0s-12.5 32.8 0 45.3L402.7 256 265.4 393.4c-12.5 12.5-12.5 32.8 0 45.3s32.8 12.5 45.3 0l160-160zm-352 160l160-160c12.5-12.5 12.5-32.8 0-45.3l-160-160c-12.5-12.5-32.8-12.5-45.3 0s-12.5 32.8 0 45.3L210.7 256 73.4 393.4c-12.5 12.5-12.5 32.8 0 45.3s32.8 12.5 45.3 0z"/>
</symbol>

</svg>